<?xml version="1.0" encoding="UTF-8"?>
<svg width="18px" height="18px" viewBox="0 0 18 18" version="1.1" xmlns="http://www.w3.org/2000/svg" xmlns:xlink="http://www.w3.org/1999/xlink">
    <!-- Generator: Sketch 55.2 (78181) - https://sketchapp.com -->
    <title>Combined Shape</title>
    <desc>Created with Sketch.</desc>
    <g id="Redlines" stroke="none" stroke-width="1" fill="none" fill-rule="evenodd">
        <g id="Redlines---toggle" transform="translate(-255.000000, -98.000000)" fill="#FFFFFF" fill-rule="nonzero">
            <g id="Toggle-button" transform="translate(246.000000, 89.000000)">
                <g id="loyalty" transform="translate(18.000000, 18.000000) scale(-1, 1) translate(-18.000000, -18.000000) translate(9.000000, 9.000000)">
                    <path d="M17.469,8.622 C17.793,8.946 18,9.405 18,9.9 C18,10.395 17.802,10.845 17.469,11.169 L11.169,17.469 C10.845,17.802 10.395,18 9.9,18 C9.405,18 8.955,17.802 8.631,17.478 L0.531,9.378 C0.198,9.045 0,8.595 0,8.1 L0,1.8 C0,0.81 0.81,0 1.8,0 L8.1,0 C8.595,0 9.045,0.198 9.369,0.522 L17.469,8.622 Z M4.05,5.4 C4.79558441,5.4 5.4,4.79558441 5.4,4.05 C5.4,3.30441559 4.79558441,2.7 4.05,2.7 C3.30441559,2.7 2.7,3.30441559 2.7,4.05 C2.7,4.79558441 3.30441559,5.4 4.05,5.4 Z" id="Combined-Shape"></path>
                </g>
            </g>
        </g>
    </g>
</svg>